<?xml version="1.0" encoding="UTF-8"?>
<svg width="1200pt" height="1200pt" version="1.1" viewBox="0 0 1200 1200" xmlns="http://www.w3.org/2000/svg">
 <g>
  <path d="m293.6 1066.5-160.1-160.1c-12.219-12.207-19.07-28.773-19.043-46.043 0.027344-17.273 6.9297-33.82 19.188-45.984 72.488-72.027 240.79-240.62 334.66-334.71 99.492-99.727 195.12-102.73 229.12-125.77 7.2891-5.707 170.56-133.8 202.93-159.42-2.2852-18.719 7.832-36.215 35.297-43.547v-0.003906c-1.2266-8.9297 1.3672-17.965 7.1445-24.883 5.7734-6.9219 14.199-11.086 23.207-11.477 9.0039-0.39062 17.758 3.0312 24.109 9.4258l85.906 85.906v-0.003906c6.3984 6.3555 9.8203 15.109 9.4336 24.113-0.39062 9.0078-4.5586 17.434-11.48 23.211s-15.957 8.3672-24.887 7.1406c-7.3594 27.566-24.91 37.566-43.551 35.301-25.617 32.375-153.72 195.65-159.41 202.92-23.16 34.141-25.871 129.45-125.77 229.12-94.09 93.871-262.69 262.17-334.71 334.66l-0.003906 0.003906c-12.168 12.25-28.715 19.152-45.98 19.18-17.27 0.027344-33.84-6.8242-46.047-19.035zm16.973-16.973c7.6953 7.7031 18.145 12.023 29.035 12.004 10.887-0.015626 21.324-4.3672 28.996-12.094 72.059-72.52 240.69-240.85 334.79-334.73 97.449-97.219 95.754-186.72 123.2-226.1 0.46484-0.66797 145.2-185.12 162.89-207.34h0.003906c2.8906-5.2188 8.9375-7.832 14.719-6.3555 20.977 6.2617 23.449-23.812 23.664-28.746h-0.003907c0.21484-4.7539 3.2109-8.9297 7.6406-10.656 4.4336-1.7227 9.4648-0.67188 12.836 2.6875 8.0078 8.0078 17.875-4.1719 10.707-11.34l-85.906-85.902c-7.1523-7.1523-19.371 2.6719-11.34 10.707v-0.003906c3.3594 3.3711 4.4102 8.4023 2.6836 12.832-1.7227 4.4336-5.8984 7.4297-10.652 7.6445-7.4727 0.36328-34.805 3.3828-28.742 23.672 1.4727 5.7773-1.1406 11.82-6.3594 14.707-13.035 10.379-205.71 161.75-207.33 162.88-37.207 25.938-130.61 27.48-226.11 123.21-93.883 94.105-262.21 262.73-334.73 334.79-7.7305 7.6719-12.086 18.105-12.102 28.996-0.015626 10.891 4.3047 21.34 12.012 29.035z"/>
  <path d="m421.97 646.5c-7.2969-7.3125-11.395-17.223-11.395-27.555 0-10.332 4.0977-20.242 11.395-27.555l113.25-113.24c9.8438-9.8438 24.195-13.691 37.641-10.086 13.449 3.6016 23.949 14.105 27.555 27.555 3.6016 13.449-0.24219 27.797-10.086 37.641l-113.24 113.24c-7.3164 7.2969-17.227 11.395-27.559 11.395-10.328 0-20.238-4.0977-27.555-11.395zm130.22-151.38-113.25 113.24v0.003906c-3.7812 3.7812-5.2578 9.293-3.875 14.457 1.3867 5.1641 5.418 9.1992 10.586 10.582 5.1641 1.3867 10.676-0.089844 14.457-3.8711l113.25-113.25c3.7812-3.7812 5.2578-9.293 3.8711-14.457-1.3828-5.1641-5.418-9.1992-10.582-10.582-5.1641-1.3867-10.676 0.089843-14.457 3.8711z"/>
  <path d="m362.48 744.93c-10.332 0-20.238-4.1016-27.543-11.406-7.3047-7.3047-11.406-17.211-11.406-27.543 0-10.328 4.1016-20.234 11.406-27.539 7.3047-7.3047 17.211-11.41 27.543-11.41 10.328 0 20.234 4.1055 27.539 11.406 7.3047 7.3047 11.41 17.211 11.41 27.543 0.011718 10.332-4.0859 20.246-11.395 27.555-7.3086 7.3086-17.223 11.406-27.555 11.395zm0-53.91c-3.9688 0-7.7734 1.5742-10.582 4.3828-2.8047 2.8047-4.3828 6.6094-4.3828 10.578s1.5781 7.7734 4.3828 10.578c2.8086 2.8086 6.6133 4.3828 10.582 4.3828 3.9648 0 7.7734-1.5742 10.578-4.3828 2.8047-2.8047 4.3828-6.6094 4.3828-10.578 0.003907-3.9688-1.5742-7.7773-4.3789-10.582-2.8047-2.8086-6.6133-4.3828-10.582-4.3789z"/>
 </g>
</svg>
