<?xml version="1.0" encoding="UTF-8"?>
<svg width="100pt" height="100pt" version="1.1" viewBox="0 0 100 100" xmlns="http://www.w3.org/2000/svg">
 <g>
  <path d="m71.875 12.5h-43.75c-8.625 0-15.625 7-15.625 15.625v43.75c0 8.625 7 15.625 15.625 15.625h43.75c8.625 0 15.625-7 15.625-15.625v-43.75c0-8.625-7-15.625-15.625-15.625zm9.375 59.375c0 5.1562-4.2188 9.375-9.375 9.375h-43.75c-5.1562 0-9.375-4.2188-9.375-9.375v-43.75c0-5.1562 4.2188-9.375 9.375-9.375h43.75c5.1562 0 9.375 4.2188 9.375 9.375z"/>
  <path d="m50 28.125c-12.062 0-21.875 9.8125-21.875 21.875s9.8125 21.875 21.875 21.875 21.875-9.8125 21.875-21.875-9.8125-21.875-21.875-21.875zm0 37.5c-8.625 0-15.625-7-15.625-15.625s7-15.625 15.625-15.625 15.625 7 15.625 15.625-7 15.625-15.625 15.625z"/>
  <path d="m75 28.125c0 4.168-6.25 4.168-6.25 0s6.25-4.168 6.25 0"/>
 </g>
</svg>
