<?xml version="1.0" encoding="UTF-8"?>
<svg width="1200pt" height="1200pt" version="1.1" viewBox="0 0 1200 1200" xmlns="http://www.w3.org/2000/svg">
 <path d="m899.05 123.38c-79.461-79.023-186.97-123.38-299.04-123.38-112.07 0-219.58 44.359-299.04 123.38-38.352 37.93-68.324 83.477-87.988 133.7-19.66 50.223-28.574 104.02-26.168 157.9 3.1211 103.2 43.105 211.36 112.6 304.68l209.83 281.76c-99.422 10.402-204.35 40.801-204.35 96.996 0 66.695 148.46 101.58 295.11 101.58s295.12-34.883 295.12-101.58c0-56.242-104.68-86.578-204.34-97.02l209.83-281.76c66.301-86.625 105.41-190.98 112.37-299.84 3.168-54.668-5.3516-109.38-25-160.49-19.645-51.113-49.961-97.449-88.93-135.92zm-36.84 975.04c0 11.484-21.602 29.688-69.973 44.398v0.003906c-62.609 17.137-127.33 25.305-192.24 24.266-64.898 1.0547-129.62-7.0977-192.23-24.219-48.336-14.762-69.973-32.965-69.973-44.398 0-21.602 67.586-56.184 194.5-66l54.504 73.199c3.1055 4.168 8 6.625 13.199 6.625s10.094-2.457 13.199-6.625l54.527-73.199c126.93 9.7422 194.48 44.316 194.48 65.953zm12-398.4-274.21 368.18-274.19-368.21c-117.89-158.33-164.09-390.82-1.5586-553.34 73.191-73.027 172.36-114.04 275.76-114.04s202.57 41.012 275.76 114.04c162.5 162.5 116.32 395-1.5625 553.33zm-274.21-581.79c-58.164 0.007813-115.02 17.262-163.38 49.586-48.355 32.32-86.043 78.254-108.29 131.99s-28.066 112.87-16.707 169.91c11.355 57.043 39.375 109.44 80.508 150.56 41.137 41.121 93.543 69.121 150.59 80.457 57.047 11.336 116.18 5.5 169.91-16.77 53.734-22.27 99.652-59.973 131.96-108.34 32.301-48.367 49.535-105.23 49.523-163.39-0.10938-77.957-31.133-152.69-86.27-207.81-55.137-55.113-129.88-86.109-207.84-86.191zm0 555.23v0.003906c-69.262-0.011719-135.68-27.539-184.65-76.52-48.969-48.984-76.473-115.41-76.469-184.67 0.007813-69.262 27.527-135.69 76.504-184.66 48.977-48.973 115.4-76.484 184.66-76.484s135.69 27.512 184.67 76.484c48.977 48.973 76.496 115.4 76.5 184.66-0.074219 69.25-27.621 135.64-76.594 184.61s-115.37 76.508-184.62 76.578zm26.965-309.78 3.6719-13.691v0.003907c1.5234-5.6797 5.9609-10.113 11.641-11.633 5.6797-1.5195 11.738 0.10938 15.895 4.2656 4.1562 4.1602 5.7773 10.219 4.2539 15.898l-3.6719 13.68c-1.5234 5.6797-5.9609 10.113-11.637 11.637-5.6797 1.5195-11.738-0.10547-15.895-4.2617s-5.7812-10.215-4.2578-15.895zm-73.969-3.2148 13.609-3.6719v0.003906c5.6758-1.5352 11.738 0.078125 15.902 4.2266 4.168 4.1523 5.8008 10.207 4.2891 15.891-1.5078 5.6797-5.9375 10.125-11.613 11.656l-13.621 3.6719c-1.3984 0.37891-2.8438 0.57422-4.293 0.57812-5.4062 0.046876-10.484-2.5625-13.598-6.9805-3.1133-4.418-3.8594-10.082-2-15.152 1.8633-5.0742 6.0938-8.9102 11.324-10.266zm45.695 66.734 13.68-3.6719c5.6797-1.5234 11.738 0.097656 15.898 4.2539 4.1602 4.1562 5.7852 10.215 4.2656 15.895-1.5195 5.6797-5.9531 10.117-11.633 11.641l-13.691 3.6719c-5.6758 1.5234-11.734-0.10156-15.895-4.2578-4.1562-4.1562-5.7812-10.215-4.2578-15.895 1.5195-5.6797 5.9531-10.113 11.633-11.637zm146.83-194.16-295.09 103.2h0.003906c-6.0156-3.6367-12.832-5.7383-19.848-6.1172-13.812-0.73047-27.293 4.3867-37.141 14.098-8.2422 8.6953-12.953 20.145-13.227 32.117-0.26953 11.977 3.9219 23.625 11.762 32.684 57.215 74.582 123.96 141.33 198.54 198.55 9.3594 7.4531 20.918 11.598 32.879 11.785 11.98 0.066406 23.48-4.6914 31.91-13.199 9.6836-9.7852 14.816-23.184 14.148-36.938-0.36719-7.082-2.4844-13.961-6.1562-20.027l103.2-295.2c1.3711-3.918 1.2109-8.2109-0.44922-12.016-1.6602-3.8047-4.6953-6.8398-8.5-8.5-3.8047-1.6602-8.0977-1.8203-12.016-0.44922zm-113.48 349.85c-3.1328 2.4102-7.0352 3.5938-10.977 3.3398-3.9453-0.25781-7.6602-1.9375-10.453-4.7305-72.293-55.473-137-120.19-192.46-192.49-3.6836-4.8008-8.1484-14.809-1.4766-21.48 2.9805-2.8984 6.9648-4.543 11.125-4.582h0.83984c2.5664-0.003906 5.0078 1.1289 6.6602 3.0938 58.297 73.375 124.77 139.87 198.12 198.19 2 1.6953 3.1602 4.1836 3.168 6.8047 0.19141 4.4141-1.457 8.707-4.5508 11.855zm4.9453-58.164c-59.105-48.754-113.42-103.04-162.19-162.13l249.36-87.203z" fill=""/>
</svg>
