<?xml version="1.0" encoding="UTF-8"?>
<svg width="1200pt" height="1200pt" version="1.1" viewBox="0 0 1200 1200" xmlns="http://www.w3.org/2000/svg">
 <path d="m863.11 1170c-171.56 0-362.11-98-548.2-284.43-228.15-228.57-323.6-463.86-268.78-662.52 7.9922-28.969 23.355-56.102 44.422-78.461 48.469-51.422 104.18-89.238 161.11-109.34 32.461-11.477 68.074-3.8594 92.922 19.895 50.613 48.344 91.344 100.7 124.53 160.06 10.086 17.895 19.578 36.715 28.168 55.875 13.84 30.852 9.3633 66.652-11.684 93.453-27.102 34.5-59.109 71.047-97.84 111.74-12.543 13.168-15.602 33.043-7.625 49.457 28.773 59.215 71.598 118.18 123.85 170.53 52.246 52.336 111.1 95.242 170.21 124.08 16.336 7.9688 36.129 4.9023 49.238-7.6289 40.617-38.82 77.105-70.891 111.54-98.035 26.766-21.105 62.555-25.605 93.395-11.699 19.051 8.5742 37.84 18.074 55.828 28.246 59.258 33.266 111.5 74.078 159.71 124.74 23.668 24.871 31.273 60.508 19.844 92.992-20.062 57.012-57.793 112.82-109.12 161.38-22.312 21.117-49.398 36.512-78.344 44.531-36.566 10.133-74.387 15.141-113.17 15.141zm-581.09-1091.5c-4.7422 0-9.5469 0.80469-14.207 2.4531-49.676 17.539-98.766 51.043-141.96 96.875-15.668 16.617-27.066 36.703-32.973 58.09-49.977 181.11 41.066 399.64 256.36 615.33 215.26 215.68 433.34 306.88 614.1 256.82 21.328-5.9102 41.367-17.328 57.949-33.008 45.75-43.285 79.188-92.469 96.699-142.25 5.3477-15.195 1.8125-31.848-9.2266-43.441-44.836-47.137-93.371-85.047-148.37-115.92-0.019531-0.011719-0.042969-0.023438-0.058594-0.035157-16.711-9.4375-34.168-18.273-51.883-26.246-14.281-6.4297-30.922-4.3008-43.441 5.5664-33.227 26.184-68.566 57.25-108.05 94.992-27.719 26.504-69.531 32.984-104.03 16.176-63.895-31.172-127.27-77.312-183.28-133.41-56.012-56.125-102.05-119.6-133.14-183.6-16.777-34.535-10.297-76.363 16.125-104.11 37.668-39.555 68.684-74.965 94.828-108.25 9.8711-12.566 12.004-29.289 5.5703-43.641-7.9922-17.812-16.812-35.305-26.207-51.98-30.832-55.152-68.68-103.77-115.74-148.73-7.9922-7.6289-18.391-11.68-29.051-11.68z"/>
</svg>
