<?xml version="1.0" encoding="UTF-8"?>
<svg width="1200pt" height="1200pt" version="1.1" viewBox="0 0 1200 1200" xmlns="http://www.w3.org/2000/svg">
 <path d="m722.78 262.9c-2.3828-1.0508-4.8242-2.0664-7.3281-3.0391-6.1016-2.3711-12.637-4.543-19.672-6.5039-18.41-5.1211-31.91-11.961-45.266-18.723-22.871-11.582-45.281-22.93-92.578-22.93-10.004 0-27.176 1.0156-44.523 2.4141-18.691 1.5039-37.531 3.4414-47.852 5.0234-37.801 5.793-71.031 15.996-101.64 30.691-5.1289 2.4609-10.188 5.0547-15.191 7.7734l188.78 326.98zm-68.418 262.2 236.84-410.79 8.3086 4.8711c72.676 42.605 133.56 103.72 175.8 176.57 40.719 70.238 64.145 151.36 64.145 237.32v9.6289c-164.43-1.1328-328.85-2.2617-493.28-3.3906l8.1953-14.211zm243.73-384.46-23.758 41.207c30.918 18.094 50.875 42.184 74.352 70.527 7.0938 8.5625-4.168-4.9531 4.9531 6.0195 7.2891 8.7734 17.395 18.152 27.871 27.883 19.535 18.141 40.305 37.422 50.605 59.906 4.3711 9.543 10.051 19.793 15.91 30.375 13.844 25 28.68 51.781 32.512 79.781 1.5742 11.504 0.58594 33.312-0.27734 52.391-0.23438 5.1602-0.45703 10.121-0.61719 14.445l40.504 0.27734c-1.6758-78.941-23.883-153.36-61.41-218.09-38.988-67.246-94.477-124.07-160.64-164.71zm-33.328 57.809-185.63 321.97 381.36 2.6211c0.16406-4.7461 0.39453-9.832 0.63672-15.137 0.82812-18.277 1.7734-39.176 0.42578-49.016-3.3438-24.426-17.266-49.566-30.262-73.031-6.0273-10.883-11.863-21.422-16.586-31.727-8.6758-18.938-28.039-36.918-46.254-53.832-10.82-10.047-21.254-19.734-29.52-29.68l-5.0156-6.0273-0.011719 0.007812c0.75 0.91016 1.4062 1.6992 0 0-22.25-26.863-41.16-49.688-69.148-66.152zm69.16 66.145c-1.8672-2.2422-0.875-1.0352-0.011719 0.007812zm-595.77 188.31c-7.168 0-13.66 2.9062-18.355 7.6016-4.6953 4.6953-7.6016 11.188-7.6016 18.355s2.9062 13.66 7.6016 18.355c4.6953 4.6953 11.188 7.6016 18.355 7.6016s13.66-2.9062 18.355-7.6016c4.6992-4.6992 7.6016-11.188 7.6016-18.355s-2.9062-13.66-7.6016-18.355c-4.6992-4.6992-11.188-7.6016-18.355-7.6016zm-31.934-5.9727c8.1719-8.1719 19.461-13.227 31.934-13.227 12.469 0 23.758 5.0547 31.934 13.227 8.1719 8.1719 13.227 19.461 13.227 31.934 0 12.469-5.0547 23.758-13.227 31.934-8.1719 8.1719-19.461 13.227-31.934 13.227-12.469 0-23.758-5.0547-31.934-13.227-8.1719-8.1719-13.227-19.461-13.227-31.934 0-12.469 5.0547-23.758 13.227-31.934zm218.88-117.98c-7.168 0-13.66 2.9062-18.355 7.6016-4.6953 4.6953-7.6016 11.188-7.6016 18.355 0 7.168 2.9062 13.66 7.6016 18.355 4.6953 4.6953 11.188 7.6016 18.355 7.6016 7.168 0 13.66-2.9062 18.355-7.6016 4.6992-4.6992 7.6016-11.188 7.6016-18.355 0-7.168-2.9062-13.66-7.6016-18.355-4.6992-4.6992-11.188-7.6016-18.355-7.6016zm-31.934-5.9727c8.1719-8.1719 19.461-13.227 31.934-13.227 12.469 0 23.758 5.0547 31.934 13.227 8.1719 8.1719 13.227 19.461 13.227 31.934 0 9.4062-2.8789 18.141-7.8008 25.375 0.72266-0.17969 1.4805-0.27344 2.2617-0.27344 5.2148 0 9.4453 4.2266 9.4453 9.4453 0 5.2148-4.2266 9.4453-9.4453 9.4453-5.2148 0-9.4453-4.2266-9.4453-9.4453 0-0.33594 0.019531-0.66797 0.050781-0.99609-8.0039 7.2188-18.605 11.613-30.23 11.613-12.469 0-23.758-5.0547-31.934-13.227-5.4219-5.4219-9.4688-12.211-11.582-19.809-1.668 2.6641-4.6328 4.4336-8.0078 4.4336-5.2148 0-9.4453-4.2266-9.4453-9.4453 0-5.2148 4.2266-9.4453 9.4453-9.4453 2.4492 0 4.6836 0.93359 6.3594 2.4648v-0.13281c0-12.469 5.0547-23.758 13.227-31.934zm393.78 66.406c-7.168 0-13.66 2.9062-18.355 7.6016-4.6953 4.6953-7.6016 11.188-7.6016 18.355 0 7.168 2.9062 13.66 7.6016 18.355 4.6992 4.6992 11.188 7.6016 18.355 7.6016 7.168 0 13.66-2.9062 18.355-7.6016 4.6992-4.6992 7.6016-11.188 7.6016-18.355 0-7.168-2.9062-13.66-7.6016-18.355-4.6953-4.6953-11.188-7.6016-18.355-7.6016zm-31.934-5.9727c8.1719-8.1719 19.461-13.227 31.934-13.227 12.469 0 23.758 5.0547 31.934 13.227 8.1719 8.1719 13.227 19.461 13.227 31.934 0 12.469-5.0547 23.758-13.227 31.934-8.1719 8.1719-19.461 13.227-31.934 13.227-12.469 0-23.758-5.0547-31.934-13.227-8.1719-8.1719-13.227-19.461-13.227-31.934 0-12.469 5.0547-23.758 13.227-31.934zm-23.086 295.04c-7.168 0-13.66 2.9062-18.355 7.6016-4.6992 4.6992-7.6016 11.188-7.6016 18.355s2.9062 13.66 7.6016 18.355c4.6992 4.6992 11.188 7.6016 18.355 7.6016 7.168 0 13.66-2.9062 18.355-7.6016 4.6953-4.6953 7.6016-11.188 7.6016-18.355s-2.9062-13.66-7.6016-18.355c-4.6953-4.6953-11.188-7.6016-18.355-7.6016zm-31.934-5.9727c2.5352-2.5352 5.3672-4.7656 8.4414-6.6445-0.76172-1.3633-1.1953-2.9336-1.1953-4.6016 0-5.2148 4.2266-9.4453 9.4453-9.4453 4.6719 0 8.5508 3.3945 9.3086 7.8516 1.9414-0.25391 3.9219-0.38672 5.9336-0.38672 12.469 0 23.758 5.0547 31.934 13.227 8.1719 8.1719 13.227 19.461 13.227 31.934 0 12.469-5.0547 23.758-13.227 31.934-8.1719 8.1719-19.461 13.227-31.934 13.227-12.469 0-23.758-5.0547-31.934-13.227-8.1719-8.1719-13.227-19.461-13.227-31.934 0-12.469 5.0547-23.758 13.227-31.934zm-268.52 188.96c-7.168 0-13.66 2.9062-18.355 7.6016-4.6992 4.6992-7.6016 11.188-7.6016 18.355s2.9062 13.66 7.6016 18.355 11.188 7.6016 18.355 7.6016c7.168 0 13.66-2.9062 18.355-7.6016 4.6953-4.6953 7.6016-11.188 7.6016-18.355s-2.9062-13.66-7.6016-18.355c-4.6992-4.6992-11.188-7.6016-18.355-7.6016zm-31.934-5.9727c8.1719-8.1719 19.461-13.227 31.934-13.227 12.469 0 23.758 5.0547 31.934 13.227 8.1719 8.1719 13.227 19.461 13.227 31.934 0 12.469-5.0547 23.758-13.227 31.934-8.1719 8.1719-19.461 13.227-31.934 13.227-12.469 0-23.758-5.0547-31.934-13.227-8.1719-8.1719-13.227-19.461-13.227-31.934 0-12.469 5.0547-23.758 13.227-31.934zm-237.6-158.73c-7.168 0-13.66 2.9062-18.355 7.6016-4.6992 4.6992-7.6016 11.188-7.6016 18.355 0 7.168 2.9062 13.66 7.6016 18.355 4.6953 4.6953 11.188 7.6016 18.355 7.6016 7.168 0 13.66-2.9062 18.355-7.6016 4.6953-4.6953 7.6016-11.188 7.6016-18.355 0-7.168-2.9062-13.66-7.6016-18.355-4.6992-4.6992-11.188-7.6016-18.355-7.6016zm-31.934-5.9727c8.1719-8.1719 19.461-13.227 31.934-13.227 12.469 0 23.758 5.0547 31.934 13.227 8.1719 8.1719 13.227 19.461 13.227 31.934 0 12.469-5.0547 23.758-13.227 31.934-8.1719 8.1719-19.461 13.227-31.934 13.227-12.469 0-23.758-5.0547-31.934-13.227-8.1719-8.1719-13.227-19.461-13.227-31.934 0-12.469 5.0547-23.758 13.227-31.934zm7.2305-36.879 23.297 7.2031c4.7383 1.4648 9.8125-1.2109 11.277-5.9492 1.4648-4.7383-1.2109-9.8125-5.9492-11.277l-23.297-7.2031c-4.7383-1.4648-9.8125 1.2109-11.277 5.9492s1.2109 9.8125 5.9492 11.277zm92.957 141.53 20.465-13.258c4.1602-2.6953 5.3594-8.3086 2.6641-12.469-2.6953-4.1602-8.3086-5.3594-12.469-2.6641l-20.465 13.258c-4.1602 2.6953-5.3594 8.3086-2.6641 12.469s8.3086 5.3594 12.469 2.6641zm297.17 132.8 10.992 21.766c2.2344 4.4258 7.6875 6.2188 12.113 3.9844 4.4258-2.2344 6.2188-7.6875 3.9844-12.113l-10.992-21.766c-2.2344-4.4258-7.6875-6.2188-12.113-3.9844-4.4258 2.2344-6.2188 7.6875-3.9844 12.113zm-180.22-91.223 16.902 17.574c3.4375 3.5742 9.1758 3.6875 12.75 0.24609 3.5742-3.4375 3.6875-9.1758 0.24609-12.75l-16.902-17.574c-3.4375-3.5742-9.1758-3.6875-12.75-0.24609-3.5742 3.4375-3.6875 9.1758-0.24609 12.75zm102.17-14.16 23.484-6.5625c4.7773-1.3359 7.5938-6.3359 6.2578-11.109-1.3359-4.7773-6.332-7.5938-11.109-6.2578l-23.484 6.5625c-4.7773 1.3359-7.5938 6.3359-6.2578 11.109 1.3359 4.7773 6.332 7.5938 11.109 6.2578zm178.23-153.38 17.016 17.465c3.4609 3.5508 9.1992 3.6289 12.75 0.16797 3.5508-3.4609 3.625-9.1992 0.16797-12.75l-17.016-17.465c-3.4609-3.5508-9.1992-3.6289-12.75-0.16797-3.5508 3.4609-3.625 9.1992-0.16797 12.75zm266.84-169.74 22.195-10.102c4.5156-2.0547 6.5273-7.4297 4.4727-11.941-2.0547-4.5156-7.4297-6.5273-11.941-4.4727l-22.195 10.102c-4.5156 2.0547-6.5273 7.4297-4.4727 11.941 2.0547 4.5156 7.4297 6.5273 11.941 4.4727zm-172.9-149.23 18.859 15.457c3.8359 3.1445 9.5469 2.5781 12.691-1.2578s2.5781-9.5469-1.2578-12.691l-18.859-15.457c-3.8359-3.1445-9.5469-2.5781-12.691 1.2578-3.1445 3.8359-2.5781 9.5469 1.2578 12.691zm-289.77 83.746-13.859 20.062c-2.8203 4.082-1.7852 9.7266 2.293 12.543 4.082 2.8203 9.7266 1.7852 12.543-2.293l13.859-20.062c2.8203-4.082 1.7852-9.7266-2.293-12.543-4.082-2.8203-9.7266-1.7852-12.543 2.293zm-29.184-158.86-13.859 20.062c-2.8203 4.082-1.7852 9.7266 2.293 12.543 4.082 2.8203 9.7266 1.7852 12.543-2.293l13.859-20.062c2.8203-4.082 1.7852-9.7266-2.293-12.543-4.082-2.8203-9.7266-1.7852-12.543 2.293zm112.21 54.41-22.984-8.1445c-4.6758-1.6562-9.8555 0.8125-11.512 5.4883-1.6562 4.6758 0.8125 9.8555 5.4883 11.512l22.984 8.1445c4.6758 1.6562 9.8555-0.8125 11.512-5.4883s-0.8125-9.8555-5.4883-11.512zm-244.31 69.969-22.984-8.1445c-4.6758-1.6562-9.8555 0.8125-11.512 5.4883-1.6562 4.6758 0.8125 9.8555 5.4883 11.512l22.984 8.1445c4.6758 1.6562 9.8555-0.8125 11.512-5.4883s-0.8125-9.8555-5.4883-11.512zm51.168 113.32-20.832 12.676c-4.2383 2.5781-5.5938 8.1523-3.0156 12.391s8.1523 5.5938 12.391 3.0156l20.832-12.676c4.2383-2.5781 5.5938-8.1523 3.0156-12.391-2.5781-4.2383-8.1523-5.5938-12.391-3.0156zm-195.34-27.617h-24.383c-4.9609 0-9.0156 4.0586-9.0156 9.0156 0 4.9609 4.0586 9.0156 9.0156 9.0156h24.383c4.9609 0 9.0156-4.0586 9.0156-9.0156 0-4.9609-4.0586-9.0156-9.0156-9.0156zm48.895-53.34c-5.2148 0-9.4453 4.2266-9.4453 9.4453 0 5.2148 4.2266 9.4453 9.4453 9.4453 5.2148 0 9.4453-4.2266 9.4453-9.4453 0-5.2148-4.2266-9.4453-9.4453-9.4453zm259.04 65.535c-5.2148 0-9.4453 4.2266-9.4453 9.4453 0 5.2148 4.2266 9.4453 9.4453 9.4453 5.2148 0 9.4453-4.2266 9.4453-9.4453 0-5.2148-4.2266-9.4453-9.4453-9.4453zm-87.336-250.75c-5.2148 0-9.4453 4.2266-9.4453 9.4453 0 5.2148 4.2266 9.4453 9.4453 9.4453 5.2148 0 9.4453-4.2266 9.4453-9.4453 0-5.2148-4.2266-9.4453-9.4453-9.4453zm115.82-1.0156c-5.2148 0-9.4453 4.2266-9.4453 9.4453 0 5.2148 4.2266 9.4453 9.4453 9.4453 5.2148 0 9.4453-4.2266 9.4453-9.4453 0-5.2148-4.2266-9.4453-9.4453-9.4453zm93.473 37.594c-5.2148 0-9.4453 4.2266-9.4453 9.4453 0 5.2148 4.2266 9.4453 9.4453 9.4453 5.2148 0 9.4453-4.2266 9.4453-9.4453 0-5.2148-4.2266-9.4453-9.4453-9.4453zm227.74 196.58c-5.2148 0-9.4453 4.2266-9.4453 9.4453 0 5.2148 4.2266 9.4453 9.4453 9.4453 5.2148 0 9.4453-4.2266 9.4453-9.4453 0-5.2148-4.2266-9.4453-9.4453-9.4453zm-144.27-7.1133c-5.2148 0-9.4453 4.2266-9.4453 9.4453 0 5.2148 4.2266 9.4453 9.4453 9.4453 5.2148 0 9.4453-4.2266 9.4453-9.4453 0-5.2148-4.2266-9.4453-9.4453-9.4453zm130.05-234.7c-5.2148 0-9.4453 4.2266-9.4453 9.4453 0 5.2148 4.2266 9.4453 9.4453 9.4453 5.2148 0 9.4453-4.2266 9.4453-9.4453 0-5.2148-4.2266-9.4453-9.4453-9.4453zm-55.879 192.02c-5.2148 0-9.4453 4.2266-9.4453 9.4453 0 5.2148 4.2266 9.4453 9.4453 9.4453 5.2148 0 9.4453-4.2266 9.4453-9.4453 0-5.2148-4.2266-9.4453-9.4453-9.4453zm107.43-105.82c-5.2148 0-9.4453 4.2266-9.4453 9.4453 0 5.2148 4.2266 9.4453 9.4453 9.4453 5.2148 0 9.4453-4.2266 9.4453-9.4453 0-5.2148-4.2266-9.4453-9.4453-9.4453zm52.086 103.79c-5.2148 0-9.4453 4.2266-9.4453 9.4453 0 5.2148 4.2266 9.4453 9.4453 9.4453 5.2148 0 9.4453-4.2266 9.4453-9.4453 0-5.2148-4.2266-9.4453-9.4453-9.4453zm-205.09 438.42c-5.2148 0-9.4453 4.2266-9.4453 9.4453 0 5.2148 4.2266 9.4453 9.4453 9.4453 5.2148 0 9.4453-4.2266 9.4453-9.4453 0-5.2148-4.2266-9.4453-9.4453-9.4453zm128.73-206.25c-5.2148 0-9.4453 4.2266-9.4453 9.4453 0 5.2148 4.2266 9.4453 9.4453 9.4453 5.2148 0 9.4453-4.2266 9.4453-9.4453 0-5.2148-4.2266-9.4453-9.4453-9.4453zm-84.328 89.406c-5.2148 0-9.4453 4.2266-9.4453 9.4453 0 5.2148 4.2266 9.4453 9.4453 9.4453 5.2148 0 9.4453-4.2266 9.4453-9.4453 0-5.2148-4.2266-9.4453-9.4453-9.4453zm-67.562 5.082c-5.2148 0-9.4453 4.2266-9.4453 9.4453 0 5.2148 4.2266 9.4453 9.4453 9.4453 5.2148 0 9.4453-4.2266 9.4453-9.4453 0-5.2148-4.2266-9.4453-9.4453-9.4453zm-83.312-41.656c-5.2148 0-9.4453 4.2266-9.4453 9.4453 0 5.2148 4.2266 9.4453 9.4453 9.4453 5.2148 0 9.4453-4.2266 9.4453-9.4453 0-5.2148-4.2266-9.4453-9.4453-9.4453zm0.50781-72.137c-5.2148 0-9.4453 4.2266-9.4453 9.4453 0 5.2148 4.2266 9.4453 9.4453 9.4453 5.2148 0 9.4453-4.2266 9.4453-9.4453 0-5.2148-4.2266-9.4453-9.4453-9.4453zm-122.93 50.914c-5.2148 0-9.4453 4.2266-9.4453 9.4453 0 5.2148 4.2266 9.4453 9.4453 9.4453 5.2148 0 9.4453-4.2266 9.4453-9.4453 0-5.2148-4.2266-9.4453-9.4453-9.4453zm-17.281 185.92c-5.2148 0-9.4453 4.2266-9.4453 9.4453 0 5.2148 4.2266 9.4453 9.4453 9.4453 5.2148 0 9.4453-4.2266 9.4453-9.4453 0-5.2148-4.2266-9.4453-9.4453-9.4453zm49.789 83.504c-5.2148 0-9.4453 4.2266-9.4453 9.4453 0 5.2148 4.2266 9.4453 9.4453 9.4453 5.2148 0 9.4453-4.2266 9.4453-9.4453 0-5.2148-4.2266-9.4453-9.4453-9.4453zm-153.45-54.352c-5.2148 0-9.4453 4.2266-9.4453 9.4453 0 5.2148 4.2266 9.4453 9.4453 9.4453 5.2148 0 9.4453-4.2266 9.4453-9.4453 0-5.2148-4.2266-9.4453-9.4453-9.4453zm209.63-46.531c-5.2148 0-9.4453 4.2266-9.4453 9.4453 0 5.2148 4.2266 9.4453 9.4453 9.4453 5.2148 0 9.4453-4.2266 9.4453-9.4453 0-5.2148-4.2266-9.4453-9.4453-9.4453zm-108-118.87c-5.2148 0-9.4453 4.2266-9.4453 9.4453 0 5.2148 4.2266 9.4453 9.4453 9.4453 5.2148 0 9.4453-4.2266 9.4453-9.4453 0-5.2148-4.2266-9.4453-9.4453-9.4453zm-264.16 29.465c-5.2148 0-9.4453 4.2266-9.4453 9.4453 0 5.2148 4.2266 9.4453 9.4453 9.4453 5.2148 0 9.4453-4.2266 9.4453-9.4453 0-5.2148-4.2266-9.4453-9.4453-9.4453zm62.277-107.7c-5.2148 0-9.4453 4.2266-9.4453 9.4453 0 5.2148 4.2266 9.4453 9.4453 9.4453 5.2148 0 9.4453-4.2266 9.4453-9.4453 0-5.2148-4.2266-9.4453-9.4453-9.4453zm9.1445 202.18c-5.2148 0-9.4453 4.2266-9.4453 9.4453 0 5.2148 4.2266 9.4453 9.4453 9.4453 5.2148 0 9.4453-4.2266 9.4453-9.4453 0-5.2148-4.2266-9.4453-9.4453-9.4453zm54.863-124.97c-5.2148 0-9.4453 4.2266-9.4453 9.4453 0 5.2148 4.2266 9.4453 9.4453 9.4453 5.2148 0 9.4453-4.2266 9.4453-9.4453 0-5.2148-4.2266-9.4453-9.4453-9.4453zm56.598-102.62c-5.2148 0-9.4453 4.2266-9.4453 9.4453 0 5.2148 4.2266 9.4453 9.4453 9.4453 5.2148 0 9.4453-4.2266 9.4453-9.4453 0-5.2148-4.2266-9.4453-9.4453-9.4453zm-225.55 40.641c-5.2148 0-9.4453 4.2266-9.4453 9.4453 0 5.2148 4.2266 9.4453 9.4453 9.4453 5.2148 0 9.4453-4.2266 9.4453-9.4453 0-5.2148-4.2266-9.4453-9.4453-9.4453zm-13.207-139.19c-5.2148 0-9.4453 4.2266-9.4453 9.4453 0 5.2148 4.2266 9.4453 9.4453 9.4453 5.2148 0 9.4453-4.2266 9.4453-9.4453 0-5.2148-4.2266-9.4453-9.4453-9.4453zm122.94-196.09c-5.2148 0-9.4453 4.2266-9.4453 9.4453 0 5.2148 4.2266 9.4453 9.4453 9.4453 5.2148 0 9.4453-4.2266 9.4453-9.4453 0-5.2148-4.2266-9.4453-9.4453-9.4453zm-0.30078 186.95c-5.2148 0-9.4453 4.2266-9.4453 9.4453 0 5.2148 4.2266 9.4453 9.4453 9.4453 5.2148 0 9.4453-4.2266 9.4453-9.4453 0-5.2148-4.2266-9.4453-9.4453-9.4453zm83.613-62.691c-5.2148 0-9.4453 4.2266-9.4453 9.4453 0 5.2148 4.2266 9.4453 9.4453 9.4453 5.2148 0 9.4453-4.2266 9.4453-9.4453 0-5.2148-4.2266-9.4453-9.4453-9.4453zm44.703 88.391c-5.2148 0-9.4453 4.2266-9.4453 9.4453 0 5.2148 4.2266 9.4453 9.4453 9.4453 5.2148 0 9.4453-4.2266 9.4453-9.4453 0-5.2148-4.2266-9.4453-9.4453-9.4453zm-118.73-288.88c-18.855 11.617-36.973 25.16-54.863 40.645-9.0273 7.8125-18.539 23.98-27.562 39.312-6.8008 11.559-13.344 22.676-19.828 30.539-7.5625 9.1719-15.012 17.176-22.258 24.961-13.855 14.887-26.961 28.965-35.934 45.809-9.9258 18.633-14.098 50.074-17.738 77.52-1.0742 8.0898-2.1016 15.844-3.2266 22.918-2.0117 12.645-6.6992 21.312-11.32 29.852-2.6602 4.9141-5.293 9.7773-7.082 15.367h388.56zm428.33 741.89-19.918-34.5c-10.562 7.1914-21.59 13.348-33.18 17.816-7.2852 2.8086-14.703 5.8477-22.242 8.9414-35.621 14.605-73.867 30.289-115.84 29.391-14.672-0.3125-38.5-4.4609-60.98-8.375-15.145-2.6367-29.664-5.1641-39.617-6.25-7.8359-0.85547-14.594-1.5039-21.418-2.1602-32.012-3.0781-65.512-6.3008-89.211-16.086-11.023-4.5508-19.996-9.9102-27.922-15.875l-15.438 26.738c65.934 36.801 141.9 57.77 222.77 57.77 4.1641 0 7-0.015625 8.5039-0.042969 77.418-1.4062 150.57-22.031 214.5-57.371zm-29.527-51.141-193.46-335.09-197.66 342.36c7.3398 5.75 15.527 10.824 25.516 14.949 21.098 8.7109 53.129 11.793 83.738 14.734 7.7852 0.75 15.484 1.4883 21.645 2.1602 10.855 1.1836 25.523 3.7383 40.816 6.3984 21.961 3.8203 45.234 7.875 58.129 8.1484 38.008 0.8125 74.352-14.09 108.2-27.965 7.6562-3.1406 15.191-6.2305 22.617-9.0898 10.477-4.0391 20.629-9.8008 30.473-16.609zm-408.37-707.32-20.094-34.801c-32.379 19.406-62.16 42.691-88.699 69.227-79.633 79.633-130.05 188.47-133.84 309.07h32.434c2.1055-9.5703 6.1016-16.957 10.152-24.441 3.875-7.1641 7.8125-14.434 9.2969-23.773 1.0938-6.875 2.1016-14.469 3.1523-22.391 3.8516-29.051 8.2656-62.328 19.836-84.047 10.207-19.156 24.098-34.078 38.785-49.859 7.2148-7.75 14.629-15.715 21.508-24.062 5.5469-6.7266 11.703-17.188 18.102-28.062 9.8164-16.684 20.168-34.273 31.539-44.113 18.789-16.262 37.875-30.504 57.82-42.742zm-3.4961-44.289 20.039 34.707c5.4258-2.9609 10.926-5.7773 16.504-8.457 32.426-15.566 67.43-26.344 107.04-32.414 10.684-1.6367 30.055-3.6328 49.203-5.1758 17.887-1.4414 35.629-2.4883 46.023-2.4883 51.773 0 76.238 12.387 101.2 25.031 12.551 6.3555 25.238 12.781 41.738 17.371 7.6523 2.1289 14.785 4.5 21.473 7.1016 3.4766 1.3516 6.8164 2.7539 10.031 4.2109l24.133-41.902c-31.578-16.594-65.371-29.605-100.81-38.641-37.824-9.6445-77.449-14.703-118.19-14.703-79.086 0-153.48 20.055-218.39 55.355zm235 407.04 192.24 332.98c13.617-11.059 26.625-23.535 39.074-35.48 7.6914-7.3789 15.176-14.559 22.965-21.527 27.457-24.562 43.453-52.633 60.691-82.895 3.7344-6.5508 7.5117-13.184 9.8008-17.098 3.832-6.5586 9.2109-15.105 14.977-24.262 14.195-22.551 30.875-49.051 38.141-69.211 7.4414-20.656 6.2578-36.996 4.7617-57.621-0.5-6.9062-1.0352-14.277-1.3125-22.836l-381.34-2.0469zm201.94 349.77 20.988 36.355c31.34-19.059 60.234-41.742 86.047-67.484 81.281-81.062 131.96-192.46 132.25-316.27l-40.73-0.21875c0.28125 7.5117 0.80078 14.664 1.2852 21.383 1.6523 22.801 2.9648 40.859-5.8867 65.422-8.0156 22.246-25.262 49.645-39.938 72.961-5.2734 8.3789-10.195 16.199-14.602 23.738-4.4102 7.5469-7.0859 12.242-9.7227 16.875-18.031 31.645-34.762 61.004-64.594 87.691-6.9688 6.2344-14.598 13.555-22.438 21.074-13.492 12.941-27.605 26.484-42.656 38.469zm-625.84-349.82c1.0547 21.461 9.2188 44.023 17.047 65.656 4.1172 11.383 8.1484 22.52 11.215 33.652 3.4922 12.684 6.0391 25.145 8.5586 37.445 5.3594 26.211 10.57 51.68 24.031 73.566 17.078 27.766 49.27 53.523 77.551 76.152 5.9219 4.7383 11.684 9.3477 15.992 12.883 12.211 10.012 21.562 19.758 30.395 28.965 3.4648 3.6094 6.8438 7.1328 10.27 10.527l195.63-338.85zm185.17 355.97c-4.7969-4.5938-9.418-9.4062-14.184-14.375-8.5117-8.8711-17.523-18.266-28.746-27.465-5.8164-4.7695-10.727-8.6992-15.77-12.73-29.594-23.68-63.285-50.637-81.977-81.027-15.152-24.633-20.711-51.816-26.434-79.793-2.4727-12.09-4.9766-24.332-8.2578-36.246-2.7734-10.066-6.7227-20.988-10.766-32.152-8.4453-23.344-17.258-47.695-18.266-72.18h-31.219c1.2227 124.59 52.211 237.27 134.05 319.11 25.355 25.355 53.676 47.742 84.391 66.613l17.176-29.75zm238.61-375.04 460.27 2.4688 0.16797 9.3633c0.074219 4.207 0.11328 7.082 0.11328 8.625 0 129.5-52.93 246.09-137.95 330.88-84.949 84.723-201.98 137.67-330.28 140-4.2539 0.078124-7.1875 0.11719-8.8047 0.11719-131.71 0-250.95-53.387-337.26-139.7s-139.7-205.55-139.7-337.26c0-131.71 53.387-250.95 139.7-337.26s205.55-139.7 337.26-139.7c42.332 0 83.547 5.2656 122.91 15.301 40.047 10.211 78.27 25.434 113.88 45.137l8.5195 4.7148z" fill=""/>
</svg>
