<?xml version="1.0" encoding="UTF-8"?>
<svg width="1200pt" height="1200pt" version="1.1" viewBox="0 0 1200 1200" xmlns="http://www.w3.org/2000/svg">
 <g>
  <path d="m189.77 666.82c-7.332-7.3125-19.199-7.3125-26.531 0-10.164 10.164-15.617 23.305-16.352 36.637-13.855 0.75-26.773 6.5078-36.676 16.406-7.3125 7.332-7.3125 19.199 0 26.531 7.332 7.3125 19.199 7.3125 26.531 0 7.0703-7.0859 19.426-7.0859 26.492 0 3.6562 3.6562 8.4766 5.4922 13.273 5.4922 4.8008 0 9.6016-1.8359 13.258-5.4766 3.6562-3.6562 5.4922-8.457 5.4922-13.258s-1.8359-9.6016-5.4766-13.273c-7.3125-7.3125-7.3125-19.199 0-26.531 7.3203-7.3281 7.3203-19.195-0.011719-26.527z"/>
  <path d="m1162.5 618.75c0-28.668-9.1484-55.969-26.082-78.543 16.746-20.082 26.082-45.301 26.082-71.457 0-53.383-37.949-99.75-90.242-110.27-10.125-2.0078-20.043 4.5391-22.086 14.68-2.0234 10.164 4.5391 20.043 14.68 22.086 34.855 7.0156 60.148 37.918 60.148 73.504 0 21.469-9.582 42.055-26.25 56.477-3.9375 3.4141-6.3008 8.2891-6.4883 13.48-0.20703 5.1953 1.7812 10.238 5.4375 13.93 17.59 17.699 27.301 41.176 27.301 66.113 0 51.695-42.055 93.75-93.75 93.75-5.4922 0-11.062-0.52344-17.043-1.6328-4.8555-0.89844-9.957 0.1875-14.043 3.0195-4.1055 2.832-6.8984 7.1797-7.7812 12.074-6.4883 35.664-37.445 61.539-73.633 61.539-18.281 0-36.039-6.9375-50.008-19.555-5.6055-5.0625-13.668-6.2422-20.477-3.0742-53.945 25.125-90.336 76.914-96.898 135.13l-53.305-0.003906c21.148-26.137 33.188-58.781 33.188-93.75 0-5.8125-0.41406-11.531-1.0703-17.195 18.074-37.445 41.887-71.551 70.969-101.32 3.7695-3.8633 5.6992-9.168 5.2695-14.551-0.42969-5.3828-3.1484-10.332-7.4609-13.555-19.199-14.363-30.207-36.094-30.207-59.625 0-29.926 17.793-56.945 45.32-68.832 7.3125-3.1484 11.719-12.113 11.176-20.043-0.11328-1.6133-0.24609-3.2266-0.24609-4.875 0-41.043 26.289-76.949 65.398-89.363 9.5625-3.0195 15.039-13.012 12.469-22.688-1.9492-7.3672-2.8672-13.461-2.8672-19.199 0-41.363 33.637-75 75-75 22.086 0 42.957 9.6953 57.281 26.57 6.6953 7.875 18.523 8.8672 26.418 2.1758 7.9141-6.6953 8.8867-18.523 2.1758-26.438-21.449-25.297-52.742-39.809-85.875-39.809-62.043 0-112.5 50.457-112.5 112.5 0 4.0312 0.26172 8.082 0.78906 12.262-8.4375 3.918-16.125 8.8867-23.398 14.363-17.27-23.062-42.75-38.906-71.156-43.781 0.015625-0.52344 0.015625-1.0703 0.015625-1.5938 0-51.695-42.055-93.75-93.75-93.75s-93.75 42.055-93.75 93.75c0 20.492 6.8633 40.273 19.051 56.363-23.344 17.379-37.801 44.961-37.801 74.887 0 19.52 5.9258 38.137 16.949 53.793-11.137 17.758-16.949 37.781-16.949 58.707 0 3.8984 0.20703 7.7812 0.60156 11.586 0.99219 9.6562 9.1328 16.82 18.637 16.82 0.63672 0 1.293-0.019531 1.9492-0.09375 10.293-1.0703 17.793-10.273 16.727-20.586-0.28125-2.5508-0.41406-5.1211-0.41406-7.7266 0-17.27 6.0742-33.711 17.57-47.57 6.168-7.4453 5.6797-18.355-1.1641-25.219-10.574-10.609-16.406-24.73-16.406-39.711 0-23.605 15.133-44.812 37.633-52.762 6.6016-2.3242 11.324-8.1172 12.32-15.039 0.99219-6.918-1.9492-13.801-7.6133-17.867-15.004-10.781-23.59-27.395-23.59-45.582 0-31.012 25.238-56.25 56.25-56.25s56.25 25.238 56.25 56.25c0 4.2188-0.67578 8.7383-2.1172 14.23-1.5195 5.7188-0.24219 11.812 3.4492 16.445 3.6953 4.6328 9.543 7.4258 15.227 7.0703 1.1602-0.019532 2.2852-0.13281 2.1914-0.24609 25.668 0 49.48 13.445 63.133 34.855-15.469 21.039-24.824 46.52-25.574 73.988-34.598 19.93-56.309 56.887-56.309 97.406 0 28.52 10.648 55.219 29.793 75.77-8.6641 9.7305-16.668 19.949-24.355 30.395l-24.02-43.219c-22.762-40.969-26.363-89.645-9.8984-133.54 19.164-51.148 16.164-108.49-8.2695-157.37l-2.7383-5.4375c-4.6133-9.2617-15.918-12.957-25.164-8.3633-9.2617 4.6484-12.992 15.918-8.3438 25.164l2.7188 5.418c19.781 39.562 22.219 86.008 6.6758 127.41-20.324 54.207-15.883 114.32 12.242 164.93l15.676 28.199c-27.543-32.438-68.547-53.102-114.32-53.102-82.707 0-150 67.293-150 150 0 6.918 0.52344 13.742 1.4258 20.477-7.4453 1.3867-14.699 3.6367-21.543 6.8047-14.531 6.7305-30.805 7.3516-45.898 2.5703l10.145-10.145c4.5938-4.5938 6.4883-11.25 4.9883-17.57-1.5-6.3203-6.1484-11.418-12.32-13.48l-26.195-8.7383c-32.156-10.707-61.82-29.043-85.801-53.023 28.5-28.52 30-73.539 3.3945-102.52-20.98-22.855-49.574-35.793-80.512-36.449-31.352-0.80469-60.074 11.023-81.957 32.926l-26.531 26.512c-7.332 7.3125-7.332 19.18 0 26.512 7.332 7.332 19.18 7.332 26.512 0l26.531-26.512c14.605-14.586 33.863-22.555 54.656-21.938 20.625 0.42969 39.695 9.0742 53.699 24.32 12.77 13.914 11.738 36.637-2.2695 50.645-7.0859 7.0703-10.988 16.5-10.988 26.531 0 10.012 3.8984 19.426 10.988 26.512 27.43 27.43 61.238 48.562 97.875 61.219l-63.281 63.301c-12.656-36.676-33.676-70.539-61.105-97.988-14.156-14.176-38.867-14.195-53.043 0-14.043 14.008-36.75 15.039-50.645 2.2891-17.156-15.75-25.949-38.082-24.113-61.258 0.80469-10.332-6.8984-19.352-17.211-20.176-10.312-0.71094-19.367 6.8984-20.176 17.211-2.7383 34.762 10.426 68.23 36.148 91.855 28.969 26.605 74.008 25.125 102.52-3.3945 4.4453 4.4453 8.457 9.2422 12.508 14.062-37.406 6.9375-67.086 36.035-74.66 73.199h-58.145c-6.5078 0-12.523 3.375-15.957 8.8867-3.4141 5.5312-3.7305 12.43-0.82422 18.242 49.48 98.926 148.89 160.37 259.48 160.37h19.801v18.75c0 31.012 25.238 56.25 56.25 56.25h450c31.012 0 56.25-25.238 56.25-56.25v-18.75h19.801c110.59 0 210.02-61.445 259.48-160.37 2.9062-5.8125 2.6055-12.711-0.82422-18.242-3.4336-5.5156-9.4492-8.8906-15.957-8.8906h-1.0703c0.35937-3.1328 1.0703-6.2266 1.0703-9.375 0-26.324-12.488-50.699-32.68-66.395 9-13.574 13.93-29.512 13.93-46.105 0-19.312-6.6367-37.461-18.281-52.086 33.676-23.812 55.781-63.02 55.781-107.29zm-581.25 75c62.043 0 112.5 50.457 112.5 112.5 0 38.211-19.051 72.824-50.926 93.75h-123.15c-31.875-20.926-50.926-55.539-50.926-93.75 0-62.043 50.457-112.5 112.5-112.5zm-375 168.75c2.3633 0 4.875 0.24219 7.5391 0.69531 6.1875 11.344 11.68 23.062 15.77 35.305l0.48438 1.5h-76.594c7.7617-21.77 28.387-37.5 52.801-37.5zm637.5 243.75c0 10.332-8.3984 18.75-18.75 18.75h-450c-10.332 0-18.75-8.418-18.75-18.75v-18.75h487.5zm57.301-56.25h-602.1c-85.727 0-163.76-42.414-210.24-112.5h267.54c10.352 0 18.75-8.3984 18.75-18.75s-8.3984-18.75-18.75-18.75h-54.918l34.613-34.613c2.1016 0.63672 4.125 1.3516 5.9258 2.1758 13.5 6.2422 27.992 9.375 42.508 9.375 14.492 0 28.988-3.1328 42.508-9.375 4.9492-2.2891 10.18-3.5625 15.543-4.2734 5.4375 13.273 12.957 25.539 22.012 36.711h-33.191c-10.352 0-18.75 8.3984-18.75 18.75s8.3984 18.75 18.75 18.75h680.04c-46.48 70.086-124.52 112.5-210.24 112.5zm186.45-271.88c0 14.043-6.4688 27.301-17.738 36.336-5.2891 4.2578-7.875 11.023-6.75 17.719 1.125 6.6758 5.7734 12.242 12.133 14.551 18.598 6.7148 31.105 24.34 31.105 43.895 0 3.1328-0.42969 6.2617-1.1055 9.375h-110.7c3.3359-31.613 20.383-60.281 47.195-78.148 8.625-5.7383 10.949-17.383 5.1953-26.008-5.7578-8.625-17.383-10.969-26.008-5.1953-23.477 15.637-41.438 37.406-52.406 62.398-8.8516-5.8672-19.504-9.2969-30.922-9.2969-10.367 0-18.75 8.3984-18.75 18.75s8.3828 18.75 18.75 18.75c10.352 0 18.75 8.418 18.75 18.75h-167.32c5.793-39.938 29.773-75.582 65.062-95.887 19.012 13.535 41.586 20.887 64.762 20.887 48.301 0 90.414-30.73 105.98-75.168 16.426 0.88281 32.176-1.4609 46.875-6.207 9.9375 8.8125 15.898 21.074 15.898 34.5z"/>
  <path d="m1031.2 562.5c-10.367 0-18.75 8.3984-18.75 18.75v24.188c-29.57 5.6797-58.258 15.75-84.844 29.887 13.145-24.449 20.324-51.355 21.469-78.73l11.812-2.3242c40.742-8.0273 70.312-43.988 70.312-85.52 0-10.352-8.3828-18.75-18.75-18.75s-18.75 8.3984-18.75 18.75c0 23.664-16.836 44.137-40.07 48.695l-6.8438 1.3516c-2.1562-12.918-5.6797-25.742-10.688-38.25-3.8438-9.6172-14.832-14.289-24.375-10.445-9.6172 3.8438-14.305 14.758-10.461 24.375 20.512 51.242 10.648 108.88-25.688 150.41l-64.762 74.008c-6.3203 7.2188-6.1484 18.055 0.375 25.105 3.6914 3.9531 8.6992 5.9961 13.762 5.9961 3.9375 0 7.8945-1.2188 11.25-3.75l75-56.25c45.148-33.844 101.1-52.5 157.5-52.5 10.367 0 18.75-8.3984 18.75-18.75s-8.3828-18.75-18.75-18.75c-6.2617 0-12.508 0.20703-18.75 0.61719v-19.367c0-10.352-8.3828-18.75-18.75-18.75z"/>
  <path d="m600 750c0 10.355-8.3945 18.75-18.75 18.75s-18.75-8.3945-18.75-18.75 8.3945-18.75 18.75-18.75 18.75 8.3945 18.75 18.75"/>
  <path d="m600 862.5c0 10.355-8.3945 18.75-18.75 18.75s-18.75-8.3945-18.75-18.75 8.3945-18.75 18.75-18.75 18.75 8.3945 18.75 18.75"/>
  <path d="m656.25 806.25c0 10.355-8.3945 18.75-18.75 18.75s-18.75-8.3945-18.75-18.75 8.3945-18.75 18.75-18.75 18.75 8.3945 18.75 18.75"/>
  <path d="m543.75 806.25c0 10.355-8.3945 18.75-18.75 18.75s-18.75-8.3945-18.75-18.75 8.3945-18.75 18.75-18.75 18.75 8.3945 18.75 18.75"/>
  <path d="m286.05 611.93c17.531 30.355 45.824 52.07 79.688 61.145 11.305 3.0391 22.781 4.5391 34.18 4.5391 22.742 0 45.188-5.9609 65.418-17.645 8.9805-5.1758 12.039-16.648 6.8633-25.613l-32.812-56.832c-5.1953-8.9609-16.668-12.055-25.613-6.8633-13.445 7.7812-30.676 3.1328-38.418-10.293-3.7695-6.5078-4.7617-14.082-2.8125-21.336 1.9492-7.2578 6.6016-13.312 13.086-17.082 8.9805-5.1758 12.055-16.648 6.8828-25.613-5.1758-8.9609-16.668-12.074-25.613-6.8633-15.188 8.7578-26.043 22.914-30.582 39.844-4.5391 16.93-2.2109 34.633 6.5625 49.801 14.832 25.688 44.531 37.594 72.039 31.031l14.492 25.105c-17.305 5.8125-35.945 6.4297-53.98 1.6133-24.188-6.4883-44.398-21.992-56.926-43.688-25.836-44.773-10.461-102.23 34.312-128.06 8.9805-5.1758 12.039-16.648 6.8633-25.613-5.1758-8.9805-16.633-12.074-25.613-6.8633-62.621 36.188-84.184 116.61-48.016 179.29z"/>
  <path d="m655.2 195.28 63.395 16.988c10.012 2.7188 20.289-3.2422 22.969-13.258 4.0312-14.98 19.48-23.906 34.445-19.895 7.2734 1.9492 13.332 6.6016 17.082 13.105 3.75 6.5078 4.7422 14.082 2.793 21.336-1.2734 4.8008-0.61719 9.918 1.875 14.23 2.4922 4.3125 6.6016 7.4453 11.383 8.7383l63.395 16.988c1.5938 0.42969 3.2266 0.63672 4.8555 0.63672 3.2617 0 6.5078-0.84375 9.375-2.5117 4.293-2.4922 7.4453-6.582 8.7383-11.383 18.73-69.918-22.914-142.01-92.793-160.74-33.898-9.0938-69.242-4.4258-99.602 13.105-30.375 17.531-52.086 45.844-61.164 79.707-2.6641 9.9961 3.2617 20.273 13.254 22.953zm66.637-70.199c21.695-12.523 46.988-15.844 71.156-9.375 43.727 11.719 71.961 52.688 69.32 96.227l-27.957-7.5c-0.30078-10.781-3.2617-21.375-8.8125-30.977-8.7578-15.188-22.914-26.043-39.844-30.562-28.555-7.6875-58.07 4.9297-72.883 28.988l-28.012-7.5c8.1406-16.332 20.871-29.965 37.031-39.301z"/>
  <path d="m178.59 385.22 70.312 26.102c2.1172 0.78516 4.3125 1.1797 6.5234 1.1797 2.6797 0 5.3438-0.5625 7.8203-1.707 4.5195-2.082 8.0234-5.8516 9.7695-10.52 12.207-32.867 10.875-68.512-3.7305-100.39-14.609-31.875-40.766-56.137-73.633-68.344l-70.312-26.102c-9.6758-3.5625-20.492 1.3516-24.113 11.043-25.18 67.859 9.5273 143.55 77.363 168.73zm-46.949-137.44 50.961 18.918c35.68 13.238 58.258 46.086 60.637 81.805l-41.477-51.844c-6.4883-8.082-18.281-9.3945-26.363-2.9258-8.082 6.4688-9.3945 18.262-2.9258 26.363l26.008 32.512-6.8438-2.5312c-42.43-15.766-66.711-59.211-59.996-102.3z"/>
  <path d="m361.74 342.99c-6.75 6.75-7.3516 17.512-1.3867 24.977l75 93.75c3.5625 4.4453 8.9453 7.0312 14.645 7.0312s11.082-2.5859 14.645-7.0312l75-93.75c5.9609-7.4453 5.3828-18.207-1.3867-24.977-48.676-48.672-127.84-48.672-176.52 0zm88.258 76.988-48.883-61.105c29.398-19.895 68.363-19.895 97.762 0z"/>
  <path d="m412.5 262.5c31.012 0 56.25-29.438 56.25-65.625s-25.238-65.625-56.25-65.625-56.25 29.438-56.25 65.625 25.238 65.625 56.25 65.625zm0-93.75c9.9922 0 18.75 13.145 18.75 28.125s-8.7578 28.125-18.75 28.125-18.75-13.145-18.75-28.125 8.7578-28.125 18.75-28.125z"/>
  <path d="m110.21 536.64c11.852 11.852 26.906 19.332 42.395 21.055 2.2305 0.26172 4.4453 0.375 6.6367 0.375 14.324 0 27.602-5.2305 37.145-14.793 11.023-11.023 16.293-26.98 14.418-43.781-1.707-15.488-9.1875-30.523-21.039-42.395-11.852-11.852-26.906-19.332-42.395-21.039-16.801-1.9141-32.758 3.3945-43.781 14.418-11.023 11.023-16.293 26.98-14.418 43.781 1.7266 15.492 9.2109 30.527 21.039 42.379zm19.914-59.664c3.0938-3.1133 7.332-3.8047 10.574-3.8047 0.95703 0 1.8203 0.054688 2.5508 0.13281 6.957 0.78906 14.25 4.5391 20.008 10.293 5.7734 5.7578 9.5234 13.051 10.293 20.008 0.35547 3.168 0.33594 9.1133-3.6758 13.125s-9.9766 3.957-13.125 3.6758c-6.957-0.78906-14.25-4.5391-20.008-10.312-5.7734-5.7578-9.5234-13.051-10.293-20.008-0.35547-3.1523-0.33594-9.0977 3.6758-13.109z"/>
 </g>
</svg>
