<?xml version="1.0" encoding="UTF-8"?>
<svg width="1200pt" height="1200pt" version="1.1" viewBox="0 0 1200 1200" xmlns="http://www.w3.org/2000/svg">
 <path d="m1060.6 624.12c-69.84-135.96-167.64-252-290.52-344.88-122.88-92.762-261.12-155.04-411.12-185.04-11.762-2.3984-23.16 0-33.121 6.8398-9.8398 6.8398-16.199 16.68-18.121 28.559l-16.078 96c-3.8398 23.16 11.039 45 34.078 49.68 1.9219 0.35938 3.7188 0.96094 5.6406 1.3203l-195.36 776.04c-4.3203 17.16 1.8008 34.441 15.961 45.121 7.8008 5.8789 16.922 8.8789 26.039 8.8789 7.4414 0 14.879-1.9219 21.719-5.8789l356.4-205.8c0.12109-0.12109 0.23828-0.12109 0.23828-0.12109s0.12109 0 0.23828 0.12109c0.12109 0.12109 0.23828 0.12109 0.23828 0.12109v0.35938 10.801c0 28.078 22.801 50.879 50.879 50.879s50.879-22.922 50.879-51.238v-60.48c0-14.398 11.762-26.16 26.16-26.16 14.398 0 26.16 11.762 26.16 26.16v164.52c0 28.078 22.801 50.879 50.879 50.879s50.879-22.801 50.879-50.879v-248.4c0-9.8398 4.6797-17.879 13.199-22.801l66.602-38.398c0.83984 1.6797 1.9219 3.3594 2.7617 5.0391 7.6797 14.879 22.68 23.398 38.398 23.398 6.2383 0 12.602-1.3203 18.719-4.1992l87.961-41.762c10.801-5.1602 18.602-13.922 22.441-25.199 3.8477-11.281 3.3672-22.801-2.1523-33.48zm-768.36-90.961c12.121 1.4414 23.641 5.8789 33.602 13.32 14.762 11.16 24.238 27.359 26.762 45.602 2.5195 18.238-2.1602 36.48-13.32 51.238-18.84 24.961-52.078 33.602-80.398 22.441zm34.562 465.72c-22.559-24.238-25.199-61.441-4.6797-88.441 11.16-14.762 27.359-24.238 45.602-26.762 18.238-2.5195 36.48 2.1602 51.238 13.32 11.641 8.7617 19.922 21.121 24.121 34.922zm487.08-281.28c-16.199 9.3594-25.559 25.559-25.559 44.281v248.4c0 14.398-11.762 26.16-26.16 26.16-14.398 0-26.16-11.762-26.16-26.16v-164.64c0-28.078-22.801-50.879-50.879-50.879s-50.879 22.801-50.879 50.879v60.48c0 14.641-11.762 26.52-26.16 26.52-14.398 0-26.16-11.762-26.16-26.16v-10.801c0-9.1211-4.6797-17.281-12.602-21.84s-17.398-4.5586-25.32 0l-78.602 45.359c-6.2383-16.559-16.922-31.078-31.32-41.879-20.039-15.121-44.641-21.48-69.48-18-24.84 3.4805-46.801 16.441-61.922 36.359-26.52 35.16-24.719 83.281 2.3984 116.16l-117.48 67.801c-6.7188 3.8398-14.398 3.3594-20.52-1.3203-6.1211-4.6797-8.7617-11.879-6.8398-19.441l92.879-368.88c10.078 3.6016 20.641 5.5195 31.078 5.5195 28.68 0 56.879-13.078 75.121-37.199 15.121-20.039 21.48-44.641 18-69.48-3.4805-24.84-16.32-46.801-36.359-61.922-12.602-9.4805-27-15.602-42.359-17.879l57.121-226.8c110.16 26.641 212.28 74.879 303.84 144 91.559 69.121 165.84 154.2 221.64 252.84zm225.84-67.68c-1.6797 5.0391-4.8008 8.5195-9.6016 10.801l-87.961 41.762c-9.1211 4.3203-19.922 0.71875-24.48-8.2812-58.801-113.4-140.76-210.36-243.48-287.88-102.72-77.641-218.28-129.84-343.56-155.4-9.8398-2.0391-16.32-11.398-14.641-21.359l16.078-96c0.83984-5.2812 3.3594-9.2383 7.8008-12.238 3.2383-2.2812 6.6016-3.3594 10.199-3.3594 1.3203 0 2.6406 0.12109 4.0781 0.35938 146.28 29.281 281.16 90 401.04 180.6 119.88 90.602 215.28 203.76 283.44 336.36 2.5273 4.9102 2.7656 9.4727 1.0859 14.633zm-374.52-347.4c-2.3984 3.7188-6.3594 5.7617-10.441 5.7617-2.2812 0-4.5586-0.60156-6.6016-1.9219-54.121-33.84-112.08-62.16-172.08-84.121-6.3594-2.2812-9.7188-9.4805-7.3203-15.84 2.2812-6.3594 9.4805-9.7188 15.84-7.3203 61.68 22.441 121.2 51.602 176.76 86.398 5.7578 3.6016 7.4414 11.285 3.8398 17.043zm-233.64-108.12c-1.5586 5.3984-6.4805 8.8789-11.879 8.8789-1.0781 0-2.2812-0.12109-3.4805-0.48047-9.3594-2.7617-18.84-5.2812-28.32-7.6797-6.6016-1.6797-10.559-8.3984-8.8789-15 1.6797-6.6016 8.3984-10.559 15-8.8789 9.7188 2.5195 19.441 5.1602 29.039 7.9219 6.6016 1.8008 10.441 8.6406 8.5195 15.238zm249.12 383.4c-41.281-31.199-100.2-22.922-131.4 18.359-15.121 20.039-21.48 44.641-18 69.48 3.4805 24.84 16.32 46.801 36.359 61.922 16.441 12.48 36.121 18.961 56.398 18.961 4.3203 0 8.7617-0.35938 13.199-0.96094 24.84-3.4805 46.801-16.32 61.922-36.359 31.078-41.281 22.801-100.32-18.48-131.4zm-1.3203 116.52c-11.16 14.762-27.359 24.238-45.602 26.762-18.238 2.5195-36.48-2.1602-51.238-13.32-14.762-11.16-24.238-27.359-26.762-45.602-2.5195-18.238 2.1602-36.48 13.32-51.238 11.16-14.762 27.359-24.238 45.602-26.762 3.2383-0.48047 6.4805-0.71875 9.7188-0.71875 14.879 0 29.398 4.8008 41.52 13.922 30.359 23.035 36.359 66.477 13.441 96.957zm-210.36 20.398c-6.7188 8.8789-19.32 10.68-28.199 3.9609-8.8789-6.7188-10.68-19.32-3.9609-28.199 6.7188-8.8789 19.32-10.68 28.199-3.9609s10.68 19.441 3.9609 28.199zm293.04-53.277c6.7188-8.8789 19.32-10.68 28.199-3.9609 8.8789 6.7188 10.68 19.32 3.9609 28.199-6.7188 8.8789-19.32 10.68-28.199 3.9609-8.8828-6.7188-10.68-19.32-3.9609-28.199zm-176.52-207.12c6.7188-8.8789 19.32-10.68 28.199-3.9609 8.8789 6.7188 10.68 19.32 3.9609 28.199s-19.32 10.68-28.199 3.9609c-8.8828-6.5977-10.562-19.32-3.9609-28.199zm-219.24 337.56c1.9219 6.6016-1.8008 13.441-8.3984 15.359-9.2383 2.7617-18.359 3.7188-26.762 3.7188-25.68 0-45.719-9.3594-45.961-9.4805-6.1211-3-8.7617-10.32-5.8789-16.441 3-6.1211 10.32-8.7617 16.441-5.8789 6.9609 3.3594 31.922 11.16 55.199 4.3203 6.6016-1.918 13.441 1.9219 15.359 8.4023zm168.6-26.398c4.9219 4.6797 5.1602 12.48 0.48047 17.52-16.801 17.762-21 43.922-21.238 51.602-0.12109 6.7188-5.6406 12.121-12.359 12.121h-0.23828c-6.8398-0.12109-12.238-5.7617-12.121-12.602 0-0.35938 1.1992-39.719 27.961-68.039 4.7969-5.043 12.598-5.2812 17.516-0.60156zm-84-224.52c-4.9219-4.6797-5.1602-12.48-0.35938-17.52 5.3984-5.6406 20.762-27.121 21.48-51.48 0.23828-6.8398 5.8789-12.238 12.719-12 6.8398 0.23828 12.238 5.8789 12 12.719-1.1992 39-28.078 67.559-28.32 67.922-2.3984 2.5195-5.6406 3.8398-8.8789 3.8398-3.1211-0.12109-6.2422-1.2031-8.6406-3.4805zm-21.602-152.52c-6.7188 8.8789-19.32 10.68-28.199 3.9609-8.8789-6.7188-10.68-19.32-3.9609-28.199s19.32-10.68 28.199-3.9609c8.8828 6.5977 10.684 19.316 3.9609 28.199zm-178.92 602.4c-6.7188 8.8789-19.32 10.68-28.199 3.9609s-10.68-19.32-3.9609-28.199c6.7188-8.8789 19.32-10.68 28.199-3.9609s10.68 19.32 3.9609 28.199z" fill="#E9542F" fill-rule="evenodd"/>
</svg>
