<?xml version="1.0" encoding="UTF-8"?>
<svg width="100pt" height="100pt" version="1.1" viewBox="0 0 100 100" xmlns="http://www.w3.org/2000/svg">
 <g fill="#e8532f">
  <path d="m94.984 57.812c0.007813 0.089844 0.007813 0.17578 0 0.26562-0.046875 1.6094-0.71484 3.1367-1.8594 4.2656-1.6914 1.6914-4.2461 2.1758-6.4375 1.2188-0.9375-0.41797-1.7383-1.0859-2.3125-1.9375-0.14062-0.1875-0.26562-0.38672-0.375-0.59375l-1.1875-2.1875c-0.39062-0.73438-0.82812-1.5625-1.2969-2.3594-0.75-1.2812-1.5625-2.7031-2.6094-4.2344-0.54688-0.84375-1.125-1.7188-1.7656-2.625-0.46875-0.65625-0.95312-1.3125-1.5625-2s-0.78125-1.0469-1.2031-1.5625-1.0469-1.3438-1.5625-2.0156c-1.6562-2-3.5312-4.125-5.6562-6.3438-0.57812-0.60938-1.1875-1.2188-1.8125-1.8438l-0.40625-0.40625c-7.1562-7.3398-15.465-13.461-24.594-18.125l-0.20312-0.14062c-0.46094-0.25-0.88672-0.5625-1.2656-0.92188-0.23438-0.22656-0.44141-0.48047-0.625-0.75-0.67969-0.90234-1.0664-1.9961-1.1094-3.125-0.066406-1.6094 0.54688-3.1758 1.6875-4.3125 1.707-1.7109 4.2344-2.3164 6.5312-1.5625 4.5625 1.4844 14.062 5.375 29.031 20.312 3.2344 3.2344 5.9531 6.25 8.2344 8.9531 0.71875 0.84375 1.3906 1.6875 2.0469 2.5312l1.2656 1.6094c3.8008 4.7539 6.7539 10.121 8.7344 15.875 0.21484 0.64844 0.32031 1.332 0.3125 2.0156z"/>
  <path d="m22.125 89.359 2.0938 2.6719-6.125 2.6406c-1.9297 0.82812-4.1484 0.63281-5.9023-0.51953-1.7578-1.1562-2.8125-3.1133-2.8164-5.2148v-0.8125c2.2227 2.2734 5.6055 2.9727 8.5469 1.7656l2.3906-1c0.64062-0.26172 1.3789-0.070313 1.8125 0.46875z"/>
  <path d="m43.75 81.25v1.9219l-4.9688 2.2656 1.0938-3.7969c0.27344-0.82422 0.89453-1.4883 1.7031-1.8125 0.48047-0.20312 1.0312-0.15234 1.4648 0.13281 0.4375 0.28516 0.70312 0.76953 0.70703 1.2891z"/>
  <path d="m60.078 76.562 0.26562 0.57812-7.2188 3.2812v-0.89062c0-1.8828 1.1289-3.5781 2.8594-4.3125 1.5117-0.58984 3.2266-0.023438 4.0938 1.3438z"/>
  <path d="m83.516 64.984-13.406 6.125 0.35938-1.5625c0.33984-1.4492 1.3516-2.6484 2.7188-3.2344l8.1562-3.4531c0.54688 0.86719 1.293 1.5977 2.1719 2.125z"/>
  <path d="m40.625 31.25c0 2.0703-0.82422 4.0586-2.2891 5.5234-1.4648 1.4648-3.4531 2.2891-5.5234 2.2891-0.82812 0.003906-1.6523-0.13672-2.4375-0.40625l6.5469-14.062c2.3203 1.4141 3.7266 3.9414 3.7031 6.6562z"/>
  <path d="m26.438 50.969c-0.66797 0.87891-1.6094 1.5156-2.6719 1.8125l1.1406-2.4375c0.14062-0.023438 0.28125-0.023438 0.42188 0 0.4375 0.058594 0.83203 0.28125 1.1094 0.625z"/>
  <path d="m51.562 56.25c0 4.3164-3.4961 7.8125-7.8125 7.8125s-7.8125-3.4961-7.8125-7.8125 3.4961-7.8125 7.8125-7.8125 7.8125 3.4961 7.8125 7.8125"/>
  <path d="m32.812 72.078c0.007812 0.14062 0.007812 0.28125 0 0.42188-0.007812 1.0312-0.35156 2.0312-0.98438 2.8438-0.52734 0.59375-1.2344 0.99609-2.0156 1.1406 0.12891-1.1562 0.47266-2.2812 1.0156-3.3125 0.16797-0.34375 0.41797-0.64062 0.73438-0.85938 0.26172-0.17578 0.57422-0.26953 0.89062-0.26562z"/>
  <path d="m20.312 68.75c0 4.2617-3.4141 7.7344-7.6719 7.8125l5.9375-12.656c1.1172 1.3672 1.7305 3.0781 1.7344 4.8438z"/>
  <path d="m63.203 63.359c-0.39844 1.0703-1.3086 1.8672-2.4219 2.125 0.023438-0.47656 0.074219-0.95312 0.15625-1.4219 0.089844-1.0859 0.55078-2.1094 1.3125-2.8906 0.28516-0.22266 0.64062-0.33594 1-0.3125h0.23438c0.085937 0.84375-0.007813 1.6953-0.28125 2.5z"/>
  <path d="m65.062 39.906c3.3945 3.5664 6.5273 7.3711 9.375 11.391-0.86328 0.33594-1.7773 0.50391-2.7031 0.5-2.8242-0.003906-5.4297-1.5312-6.8086-3.9961-1.3828-2.4648-1.3242-5.4844 0.15234-7.8945z"/>
  <path d="m78.375 57.547c-0.625-1.1094-1.3438-2.3125-2.1875-3.5938-1.4023 0.64062-2.9258 0.97266-4.4688 0.96875-6.0391 0-10.938-4.8984-10.938-10.938-0.007812-2.2852 0.71484-4.5156 2.0625-6.3594l-0.17188-0.125c-6.8438-7.0625-14.754-13.012-23.438-17.625l-0.96875 2c4.1836 2.5156 6.1992 7.4961 4.9336 12.211-1.2656 4.7148-5.5039 8.0234-10.387 8.1016-1.2852 0.003906-2.5625-0.22266-3.7656-0.67188l-2.7344 5.8281c1.4961 0.4375 2.7266 1.5039 3.375 2.9219 0.27734 0.48438 0.27734 1.0781 0 1.5625-1.2344 2.0625-3.2422 3.543-5.5781 4.1094-0.60156 0.09375-1.2109 0.09375-1.8125 0l-2.2812 4.875c2.4023 2.2617 3.6562 5.4883 3.4102 8.7773-0.24609 3.293-1.9648 6.2969-4.6758 8.1758-1.6562 1.1602-3.6055 1.8242-5.625 1.9219-0.20703 0.015625-0.41797 0.015625-0.625 0-0.42578 0.023438-0.85547 0.023438-1.2812 0l-0.39062 0.8125-0.1875 0.42188c-0.5625 1.25-0.51562 2.6914 0.125 3.9062 1.0859 2.1953 3.6797 3.1836 5.9531 2.2656l2.3438-1c1.9492-0.83594 4.2188-0.26172 5.5312 1.4062l2.5781 3.2969 3.125 4c0.37109 0.47266 0.97656 0.69141 1.5625 0.5625 0.57422-0.10938 1.0391-0.53125 1.2031-1.0938l2.0312-7.0625 1.8594-6.4219c0.5625-1.6992 1.8242-3.0742 3.4688-3.7812 1.4297-0.58203 3.0547-0.42188 4.3438 0.42578 1.2891 0.85156 2.0781 2.2812 2.1094 3.8242v9.875c0 0.41406 0.16406 0.8125 0.45703 1.1055s0.69141 0.45703 1.1055 0.45703c0.40234 0 0.78906-0.16016 1.0781-0.4375 0.30859-0.29297 0.48438-0.69922 0.48438-1.125v-13.156c-0.003906-3.1094 1.8359-5.9258 4.6875-7.1719 0.78906-0.34766 1.6406-0.52734 2.5-0.53125 2.332 0 4.4844 1.2695 5.6094 3.3125l0.32812 0.6875v0.14062c0.28125 0.59766 0.90625 0.95312 1.5625 0.89062 0.66797-0.0625 1.2227-0.54688 1.375-1.2031l0.3125-1.3438 0.92188-3.9062c0.56641-2.4102 2.2422-4.4102 4.5156-5.3906l7.8125-3.3438c-0.23438-0.73438-0.71875-1.6406-1.25-2.5625zm-33.062-19.031c0.29688-0.5625 3.0312-5.5469 6.8281-5.9844 1.8242-0.16797 3.6055 0.63281 4.6875 2.1094 0.34766 0.41016 0.46094 0.97266 0.29688 1.4844-0.76172 2.2852-2.4141 4.1641-4.5781 5.2188-0.74609 0.3125-1.5508 0.46875-2.3594 0.46875-1.4727-0.046875-2.9102-0.45312-4.1875-1.1875-0.37109-0.1875-0.65234-0.51562-0.78125-0.91016-0.13281-0.39844-0.097656-0.82812 0.09375-1.1992zm-1.5625 6.7969c4.4219 0 8.4102 2.6641 10.105 6.75 1.6914 4.0898 0.75781 8.793-2.3711 11.922s-7.832 4.0625-11.922 2.3711c-4.0859-1.6953-6.75-5.6836-6.75-10.105 0-6.0391 4.8984-10.938 10.938-10.938zm-9.4844 31.969c-1.5234 1.6719-3.7266 2.5547-5.9844 2.4062h-0.15625c-0.86328 0-1.5625-0.69922-1.5625-1.5625 0.019531-1.2578 0.17188-2.5078 0.45312-3.7344 0.34375-1.8516 1.3398-3.5156 2.8125-4.6875 1.5234-0.98438 3.4492-1.0977 5.0781-0.29688 0.50391 0.20312 0.86328 0.65234 0.95312 1.1875 0.050781 0.26953 0.082031 0.53906 0.09375 0.8125 0.18359 2.0977-0.41797 4.1914-1.6875 5.875zm30.969-11.312c-1.4609 1.7891-3.6602 2.8164-5.9688 2.7812-0.82812 0-1.5117-0.64453-1.5625-1.4688-0.054687-0.72266-0.054687-1.4492 0-2.1719 0.15625-2.0469 0.73438-4.9688 2.7031-6.4844 1.457-1.0742 3.375-1.3086 5.0469-0.60938 0.51562 0.17188 0.90625 0.59766 1.0312 1.125 0.20703 0.96484 0.26562 1.957 0.17188 2.9375-0.089844 1.4062-0.58203 2.7578-1.4219 3.8906z"/>
  <path d="m52.547 35.641c-1.2031 0.14062-2.5469 1.5625-3.4844 2.875 0.75 0.25391 1.5625 0.25391 2.3125 0 1.0508-0.51172 1.8945-1.3633 2.3906-2.4219-0.32031-0.32031-0.76562-0.48438-1.2188-0.45312z"/>
 </g>
</svg>
